PathFileType	4	(X/Y/Z)	C:\Users\Basilio\Documents\Thesis Gigler\squatting_fais\c3dfiles\077\SJ_pre1\markers_experimental.trc
DataRate	CameraRate	NumFrames	NumMarkers	Units	OrigDataRate	OrigDataStartFrame	OrigNumFrames
200.000000	200.000000	4	60	mm	200.000000	0	1561
Frame#	Time	FHD			LBHD			RBHD			C7			T10			CLAV			LSHO			LUUPA			LMUPA			LDUPA			LLEP			LMEP			LRAD			LUL			LRFIN			RSHO			RUPA1			RMUPA			RDUPA			RLEP			RMEP			RRAD			RUL			RUFIN			LASI			RASI			USACR			LSACR			RSACR			LTHI1			LTHI2			LTHI3			LTHI4			LLFC			LMFC			LTIB1			LTIB2			LTIB3			LTIB4			LLMAL			LHEE			LMT1			LMT2			LMT5			RTHI			RTHI2			RTHI3			RTHI4			RLFC			RMFC			RTIB1			RTIB2			RTIB3			RTIB4			RLMAL			RMMAL			RHEE			RMT1			RMT2			RMT5			
		X1	Y1	Z1	X2	Y2	Z2	X3	Y3	Z3	X4	Y4	Z4	X5	Y5	Z5	X6	Y6	Z6	X7	Y7	Z7	X8	Y8	Z8	X9	Y9	Z9	X10	Y10	Z10	X11	Y11	Z11	X12	Y12	Z12	X13	Y13	Z13	X14	Y14	Z14	X15	Y15	Z15	X16	Y16	Z16	X17	Y17	Z17	X18	Y18	Z18	X19	Y19	Z19	X20	Y20	Z20	X21	Y21	Z21	X22	Y22	Z22	X23	Y23	Z23	X24	Y24	Z24	X25	Y25	Z25	X26	Y26	Z26	X27	Y27	Z27	X28	Y28	Z28	X29	Y29	Z29	X30	Y30	Z30	X31	Y31	Z31	X32	Y32	Z32	X33	Y33	Z33	X34	Y34	Z34	X35	Y35	Z35	X36	Y36	Z36	X37	Y37	Z37	X38	Y38	Z38	X39	Y39	Z39	X40	Y40	Z40	X41	Y41	Z41	X42	Y42	Z42	X43	Y43	Z43	X44	Y44	Z44	X45	Y45	Z45	X46	Y46	Z46	X47	Y47	Z47	X48	Y48	Z48	X49	Y49	Z49	X50	Y50	Z50	X51	Y51	Z51	X52	Y52	Z52	X53	Y53	Z53	X54	Y54	Z54	X55	Y55	Z55	X56	Y56	Z56	X57	Y57	Z57	X58	Y58	Z58	X59	Y59	Z59	X60	Y60	Z60	

1	0	-4.750807762145997	1633.652587890625	-902.736022949219	-164.2980041503907	1681.565673828125	-996.1089477539065	-189.3609771728516	1686.075439453125	-852.7858886718752	-335.7148132324219	1609.3056640625	-934.1613769531252	-454.1036071777345	1262.374633789063	-931.3020019531252	-204.3574218750001	1488.235595703125	-939.040466308594	-272.5668945312501	1552.109130859375	-1126.650512695313	-366.7577514648438	1424.031982421875	-1284.432983398438	-339.6143798828126	1381.875732421875	-1289.707763671875	-388.8855590820314	1374.136962890625	-1325.946166992188	-397.6999816894532	1312.829223632813	-1358.159790039063	-471.7874755859376	1300.088745117188	-1314.279418945313	-372.1556091308594	1075.18701171875	-1167.000366210938	-320.6247558593751	1057.807250976563	-1119.350463867188	-337.8223266601563	1032.377807617188	-1226.742797851563	-237.8285675048829	1529.793334960938	-745.8985595703126	-335.7467346191407	1413.7763671875	-575.5534667968751	-315.4918212890626	1367.901489257813	-574.4631347656251	-359.7789611816407	1362.064086914063	-533.6711425781251	-371.8240051269532	1298.655029296875	-504.5552368164064	-452.9644470214845	1293.007934570313	-540.2845458984376	-382.5196533203126	1062.74853515625	-686.3453369140626	-326.4961853027344	1031.952758789063	-639.8821411132814	-327.6290893554688	1064.93896484375	-733.9723510742189	-281.7826843261719	1035.438232421875	-1075.388305664063	-276.9801940917969	1044.85888671875	-794.025329589844	-477.6426696777345	1140.696166992188	-926.8165283203127	-488.4449157714845	1111.5947265625	-955.894226074219	-488.9961242675782	1108.283447265625	-900.4710693359377	-382.3669738769532	842.6887817382815	-1147.34228515625	-361.9388732910157	761.0925903320314	-1158.55029296875	-314.8410644531251	757.0389404296876	-1155.2998046875	-396.9315185546876	711.5842895507814	-1148.032104492188	-382.3705444335938	561.7838745117189	-1145.056030273438	-363.8708190917969	517.3540649414064	-1019.442565917969	-335.6023864746094	339.1116027832032	-1127.678466796875	-374.8155822753907	306.0406188964844	-1202.082763671875	-338.8502197265626	300.2003173828126	-1173.517456054688	-333.8185119628907	216.1389770507813	-1159.827758789063	-390.3201599121095	100.2571258544922	-1215.56640625	-431.1616516113282	45.59114456176759	-1164.885986328125	-213.9565887451172	58.86695861816408	-1175.415161132813	-217.6863708496094	60.69960021972658	-1217.991943359375	-347.0220336914063	103.5092315673828	-1135.713012695313	-411.207733154297	735.1792602539064	-702.8749389648439	-380.4220275878907	675.6962280273439	-692.1044921875001	-346.4719238281251	672.3731079101564	-695.1413574218751	-415.9130249023439	603.2804565429689	-703.6520385742189	-414.3856506347657	535.7081909179689	-694.5079345703126	-372.2296447753907	498.6446228027345	-814.5466918945315	-355.5376281738282	406.1641540527345	-681.0449829101564	-416.5018005371095	328.9706115722657	-641.0338134765626	-371.0064697265626	324.7842102050782	-655.0279541015626	-356.7343139648438	275.0227661132813	-683.8309936523439	-411.640838623047	98.09477233886722	-620.3324584960939	-372.1305847167969	95.00472259521486	-705.2182617187501	-460.4274291992189	44.29082870483399	-675.7764282226564	-237.3113555908204	59.63526153564455	-634.5582275390626	-246.6188659667969	61.70158004760744	-597.7471313476564	-266.7260131835938	42.41594314575196	-550.2968139648439	
2	0.005	-4.696805953979493	1633.593017578125	-902.7103271484377	-164.1743621826172	1681.572387695313	-995.9902954101565	-189.2347412109375	1686.066650390625	-852.6780395507815	-335.6090698242188	1609.353759765625	-934.1194458007815	-454.060272216797	1262.349365234375	-931.3167724609377	-204.301986694336	1488.314331054688	-939.096130371094	-272.5255737304688	1552.263793945313	-1126.681030273438	-367.0735778808594	1424.143310546875	-1284.98681640625	-339.6394958496094	1382.026123046875	-1289.766235351563	-388.9632873535157	1374.246337890625	-1325.99560546875	-397.7536010742189	1312.977172851563	-1358.155395507813	-471.8034057617189	1300.224853515625	-1314.266723632813	-372.2148742675782	1075.266479492188	-1167.075439453125	-320.7250366210938	1057.865844726563	-1119.417602539063	-337.8251342773438	1032.494384765625	-1226.85009765625	-237.7487487792969	1529.75341796875	-745.8705444335939	-335.5667724609376	1413.663330078125	-575.6053466796876	-315.3081970214844	1367.782104492188	-574.4631958007814	-359.5707397460938	1361.927490234375	-533.7177124023439	-371.5979919433594	1298.490234375	-504.6116638183595	-452.7270507812501	1292.826171875	-540.2947387695314	-382.2289123535157	1062.641479492188	-686.3843383789064	-326.2257690429688	1031.8515625	-639.9774780273439	-327.4352722167969	1064.9013671875	-734.0052490234376	-281.9630126953126	1035.451293945313	-1075.488159179688	-276.8221435546876	1044.87255859375	-794.070739746094	-477.6397399902345	1140.761596679688	-926.795837402344	-488.4297485351564	1111.58203125	-955.8467407226565	-488.9471740722657	1108.323120117188	-900.4832153320315	-382.4091186523438	842.7207031250002	-1147.439575195313	-363.1514587402344	761.5278320312501	-1159.084594726563	-313.8283691406251	756.7269897460939	-1154.931274414063	-396.9638977050782	711.5506591796876	-1148.027709960938	-382.3593139648438	561.8246459960939	-1145.124755859375	-363.8952026367188	517.3395385742189	-1019.51953125	-335.5935363769532	339.1146240234376	-1127.744873046875	-374.8069458007813	305.9981689453126	-1202.144897460938	-338.8204650878907	300.1885375976563	-1173.568359375	-333.7494201660157	216.1506500244141	-1159.819946289063	-390.3174438476564	100.2461471557617	-1215.569213867188	-431.1517944335939	45.56549835205079	-1164.906372070313	-213.887680053711	58.90927505493165	-1175.389770507813	-217.675521850586	60.69370269775392	-1218.010620117188	-347.0332031250001	103.4539489746094	-1135.805053710938	-410.9078369140626	735.1797485351564	-702.7282104492189	-380.0297546386719	675.6588134765626	-692.0341186523439	-346.0279235839844	672.3747558593751	-695.1318969726564	-415.5455932617189	603.2506713867189	-703.5349731445314	-413.976043701172	535.7494506835939	-694.4110717773439	-372.0059814453126	498.7072753906251	-814.5352783203127	-355.1357421875001	406.1413574218751	-681.0794677734376	-416.0060424804689	328.9660644531251	-640.9977416992189	-370.6132812500001	324.7570190429688	-655.0423583984376	-356.5458679199219	274.9816894531251	-683.9137573242189	-411.5947570800782	98.12112426757815	-620.3045654296876	-372.1581115722657	94.98828125000001	-705.2444458007814	-460.4378051757814	44.27914428710938	-675.7857055664064	-237.2043914794922	59.62361145019533	-634.5921020507814	-246.5956420898438	61.72004318237306	-597.7699584960939	-266.6893615722657	42.41210174560548	-550.3076782226564	
3	0.01	-4.646491050720216	1633.517700195313	-902.601989746094	-164.5129547119141	1680.42578125	-995.6011962890627	-189.1965484619141	1686.101196289063	-852.6470336914065	-335.5494689941407	1609.390502929688	-934.0842285156252	-453.9839172363282	1262.409790039063	-931.336853027344	-204.2996673583985	1488.353881835938	-939.1210937500002	-272.5205078125001	1552.349365234375	-1126.672729492188	-367.2142028808594	1424.288696289063	-1285.03564453125	-341.0717468261719	1381.11083984375	-1288.787841796875	-389.6510620117189	1373.89306640625	-1325.73095703125	-397.8430480957032	1313.10595703125	-1358.186279296875	-471.8847961425782	1300.34716796875	-1314.281616210938	-372.3273925781251	1075.356079101563	-1167.204467773438	-320.8196411132813	1057.9453125	-1119.546752929688	-337.8706665039063	1032.608032226563	-1226.97265625	-237.6595153808594	1529.713134765625	-745.8959960937501	-335.3505859375001	1413.573486328125	-575.6213989257814	-315.0742797851563	1367.71337890625	-574.5010375976564	-359.3571777343751	1361.842163085938	-533.6995239257814	-371.3116455078126	1298.4169921875	-504.6232299804689	-452.4642944335939	1292.704223632813	-540.3110961914064	-382.0933532714844	1062.560546875	-686.4203491210939	-325.9502868652344	1031.805419921875	-640.0686035156251	-327.2234497070313	1064.846923828125	-734.0310058593751	-282.0134277343751	1035.482299804688	-1075.567260742188	-276.7002563476563	1044.944213867188	-794.2297363281252	-477.5796813964845	1140.7861328125	-926.8232421875002	-488.4358825683595	1111.579223632813	-955.8435668945315	-488.8777770996095	1108.36669921875	-900.4753417968752	-382.3703918457032	842.7337036132815	-1147.490478515625	-361.9584045410157	761.1284790039064	-1158.717895507813	-313.8272399902344	756.7057495117189	-1154.999877929688	-396.964324951172	711.5845947265626	-1148.111572265625	-382.2882995605469	561.7879028320314	-1145.198364257813	-363.8594970703126	517.3497924804689	-1019.622680664063	-335.5523071289063	339.1091003417969	-1127.760375976563	-374.7188720703126	306.0153503417969	-1202.211547851563	-338.6673889160157	300.2480163574219	-1173.562866210938	-333.7561340332032	216.1345977783204	-1159.833374023438	-389.4755859375001	99.87542724609378	-1215.560546875	-431.1683349609376	45.6020622253418	-1164.911376953125	-214.4186248779297	59.48680496215822	-1175.370483398438	-217.6755828857422	60.65701293945314	-1218.019287109375	-347.0740051269532	103.4457626342774	-1135.81494140625	-410.4980773925782	735.1692504882814	-702.5802612304689	-379.6675109863282	675.6356201171876	-691.9764404296876	-345.6055908203126	672.3634033203126	-695.2553710937501	-415.1819152832032	603.2012329101564	-703.4597167968751	-413.4535522460939	535.7655029296876	-694.2811889648439	-371.7698669433594	498.7080993652345	-814.534118652344	-355.1139221191407	406.3866271972657	-681.3016357421876	-415.6086730957032	328.9883728027344	-640.9462890625001	-370.2266540527344	324.7414245605469	-655.0306396484376	-356.3304138183594	274.9327697753907	-683.9848632812501	-411.5159606933595	98.13167572021487	-620.2787475585939	-372.1727600097657	94.97684478759767	-705.2724609375001	-460.401336669922	44.29207611083985	-675.7915649414064	-237.209701538086	59.62141036987306	-634.5970458984376	-246.5992279052735	61.71163177490236	-597.8380126953126	-266.7055664062501	42.44470214843751	-550.3389892578126	
4	0.015	-4.664409637451173	1633.4443359375	-902.512878417969	-163.944564819336	1681.689575195313	-995.8653564453127	-189.111328125	1686.111450195313	-852.6168212890627	-335.5153808593751	1609.427856445313	-934.0344238281252	-453.900604248047	1262.403076171875	-931.419372558594	-204.2332305908204	1488.393798828125	-939.2014160156252	-272.5426025390626	1552.509765625	-1126.688354492188	-367.0632934570313	1424.48291015625	-1284.462646484375	-339.8033752441407	1382.281982421875	-1289.83154296875	-389.0081176757814	1374.531860351563	-1325.9716796875	-397.8846130371095	1313.251586914063	-1358.207153320313	-471.9899902343751	1300.444213867188	-1314.25048828125	-372.4228820800782	1075.413452148438	-1167.301025390625	-320.8331298828126	1058.03955078125	-1119.630737304688	-337.9406738281251	1032.7255859375	-1227.0703125	-237.6304931640626	1529.702392578125	-745.8861694335939	-335.2176818847657	1413.500610351563	-575.6795654296876	-314.9072265625001	1367.646240234375	-574.5209960937501	-359.1512756347657	1361.742553710938	-533.7383422851564	-371.1181945800782	1298.323120117188	-504.6391906738282	-452.2866516113282	1292.55712890625	-540.2859497070314	-381.7699584960938	1062.555908203125	-686.4589233398439	-325.6937255859376	1031.701293945313	-640.1733398437501	-326.9430847167969	1064.8486328125	-734.0510864257814	-281.9819335937501	1035.555786132813	-1075.666137695313	-276.5795593261719	1044.976928710938	-794.3899536132815	-477.532684326172	1140.80517578125	-926.8286132812502	-488.4056701660157	1111.559326171875	-955.798278808594	-488.7796936035157	1108.410034179688	-900.4851684570315	-382.3093261718751	842.7210693359377	-1147.575561523438	-361.9360046386719	761.1127319335939	-1158.803833007813	-314.9121398925782	757.0327758789064	-1155.513427734375	-396.9268493652345	711.5764160156251	-1148.186401367188	-382.2568359375001	561.8193359375001	-1145.30517578125	-363.8492431640626	517.3787231445314	-1019.683898925781	-335.5334167480469	339.0962829589844	-1127.836059570313	-374.6056823730469	306.0014038085938	-1202.294921875	-338.6721191406251	300.2126464843751	-1173.572509765625	-333.6817626953126	216.1649322509766	-1159.847778320313	-390.3170776367189	100.2171630859375	-1215.642211914063	-431.1770324707032	45.60128021240235	-1164.948852539063	-214.3881072998047	59.47931289672853	-1175.366088867188	-217.648666381836	60.6213836669922	-1217.982666015625	-347.0991210937501	103.4274444580078	-1135.861328125	-410.1666870117189	735.1206665039064	-702.5092773437501	-379.1894226074219	675.6173706054689	-691.9183349609376	-345.1449279785157	672.3751831054689	-695.3129272460939	-414.7629699707032	603.1967163085939	-703.3784790039064	-412.9839172363282	535.8016357421876	-694.1635742187501	-371.5669860839844	498.743377685547	-814.481628417969	-354.6607360839844	406.3272094726564	-681.3675537109376	-415.2438049316407	329.0305786132813	-640.8984375000001	-369.8290100097657	324.7603454589844	-655.0701293945314	-356.0792541503907	274.9189758300782	-684.0744018554689	-411.450164794922	98.19293975830081	-620.2825317382814	-372.2106933593751	94.95989990234376	-705.3203735351564	-460.4025268554689	44.31961822509766	-675.8009033203126	-237.2207183837891	59.57070159912111	-634.6274414062501	-246.5716705322266	61.73648834228517	-597.8114013671876	-266.6447753906251	42.42766189575196	-550.3355102539064	
